<svg width="87" height="24" viewBox="0 0 87 24" fill="none" xmlns="http://www.w3.org/2000/svg">
<path d="M10.5 0.5C11.0514 0.5 11.593 0.644108 12.0709 0.917903L19.4209 5.10051L19.425 5.10281C19.9034 5.37786 20.3008 5.77354 20.5773 6.24981C20.8537 6.72601 20.9994 7.26623 21 7.81624V16.1838C20.9994 16.7338 20.8537 17.2742 20.5773 17.7504C20.3181 18.1969 19.9525 18.5723 19.5137 18.8441L19.425 18.8972L19.4209 18.8995L12.0747 23.0795C11.5959 23.3549 11.0529 23.5 10.5 23.5C9.94706 23.5 9.40386 23.3551 8.925 23.0798L1.5791 18.8995L1.575 18.8972C1.09662 18.6221 0.699159 18.2267 0.422717 17.7504C0.163538 17.3039 0.0192803 16.801 0.00179443 16.2866L0 16.1838V7.81624L0.00179443 7.71336C0.0192868 7.19903 0.163596 6.69628 0.422717 6.24981C0.699159 5.77354 1.09661 5.37786 1.575 5.10281L1.5791 5.10051L8.9291 0.917903C9.40696 0.644108 9.94864 0.5 10.5 0.5ZM10.5 2.5913C10.3387 2.5913 10.1799 2.62828 10.0358 2.69903L9.975 2.73146L9.9709 2.73375L2.62474 6.91381C2.46531 7.00548 2.33313 7.13751 2.24099 7.29623C2.14884 7.45498 2.10019 7.63517 2.1 7.81854V16.1815L2.10231 16.2501C2.113 16.4096 2.16036 16.5649 2.24099 16.7038C2.33313 16.8625 2.46557 16.9943 2.625 17.0859L9.9709 21.2662L9.975 21.2685L10.0358 21.301C10.1799 21.3717 10.3387 21.4087 10.5 21.4087C10.6843 21.4087 10.8654 21.3603 11.025 21.2685L11.0291 21.2662L18.375 17.0859C18.5344 16.9943 18.6669 16.8625 18.759 16.7038C18.851 16.5454 18.8996 16.3657 18.9 16.1827V7.81854L18.8977 7.74987C18.887 7.5904 18.8396 7.43512 18.759 7.29623C18.6669 7.13751 18.5344 7.00574 18.375 6.91406L11.0291 2.73375L11.025 2.73146C10.8654 2.63968 10.6843 2.5913 10.5 2.5913Z" fill="#0039C6"/>
<path d="M10.1421 5.26235C10.2836 5.18646 10.4539 5.18646 10.5954 5.26235L16.8111 8.59536C16.9659 8.67841 17.0625 8.83943 17.0625 9.0146C17.0625 9.18976 16.9659 9.35078 16.8111 9.43383L10.5954 12.7668C10.4539 12.8427 10.2836 12.8427 10.1421 12.7668L3.92645 9.43383C3.77158 9.35078 3.675 9.18976 3.675 9.0146C3.675 8.83943 3.77158 8.67841 3.92645 8.59536L10.1421 5.26235Z" fill="#0039C6"/>
<path d="M4.79998 10.9838L9.68871 13.6053C10.1133 13.833 10.6242 13.833 11.0488 13.6053L15.9375 10.9838L16.8111 11.4522C16.9659 11.5353 17.0625 11.6963 17.0625 11.8715C17.0625 12.0466 16.9659 12.2076 16.8111 12.2907L10.5954 15.6237C10.4539 15.6996 10.2836 15.6996 10.1421 15.6237L3.92645 12.2907C3.77158 12.2076 3.675 12.0466 3.675 11.8715C3.675 11.6963 3.77158 11.5353 3.92645 11.4522L4.79998 10.9838Z" fill="#0039C6"/>
<path d="M9.68871 16.4622L4.79998 13.8407L3.92645 14.3091C3.77158 14.3921 3.675 14.5532 3.675 14.7283C3.675 14.9035 3.77158 15.0645 3.92645 15.1476L10.1421 18.4806C10.2836 18.5565 10.4539 18.5565 10.5954 18.4806L16.8111 15.1476C16.9659 15.0645 17.0625 14.9035 17.0625 14.7283C17.0625 14.5532 16.9659 14.3921 16.8111 14.3091L15.9375 13.8407L11.0488 16.4622C10.6242 16.6898 10.1133 16.6898 9.68871 16.4622Z" fill="#0039C6"/>
<path d="M25.7891 17.5V9.09375H28.1797V10.1953H28.5547L27.8516 11.0703C27.9557 10.612 28.151 10.2266 28.4375 9.91406C28.7292 9.60156 29.0781 9.36719 29.4844 9.21094C29.8906 9.04948 30.3255 8.96875 30.7891 8.96875C31.3516 8.96875 31.8359 9.09896 32.2422 9.35938C32.6484 9.61979 32.9609 9.97656 33.1797 10.4297C33.3984 10.8828 33.5078 11.4062 33.5078 12V17.5H31.0391V12.5391C31.0391 12.0339 30.9193 11.6562 30.6797 11.4062C30.4401 11.151 30.1146 11.0234 29.7031 11.0234C29.4323 11.0234 29.1875 11.0833 28.9688 11.2031C28.75 11.3177 28.5755 11.4896 28.4453 11.7188C28.3203 11.9427 28.2578 12.224 28.2578 12.5625V17.5H25.7891ZM40.5078 17.625C39.6016 17.625 38.8151 17.4427 38.1484 17.0781C37.4818 16.7083 36.9661 16.2005 36.6016 15.5547C36.237 14.9036 36.0547 14.1589 36.0547 13.3203C36.0547 12.4349 36.2448 11.6693 36.625 11.0234C37.0052 10.3724 37.5104 9.86979 38.1406 9.51562C38.7708 9.15625 39.4609 8.97656 40.2109 8.97656C40.9349 8.97656 41.5885 9.14323 42.1719 9.47656C42.7604 9.8099 43.2266 10.2708 43.5703 10.8594C43.9141 11.4479 44.0859 12.1328 44.0859 12.9141C44.0859 13.1224 44.0729 13.3281 44.0469 13.5312C44.026 13.7344 43.9974 13.9219 43.9609 14.0938H37.9453V12.5469H41.8125C41.8125 12.2083 41.7422 11.9167 41.6016 11.6719C41.4609 11.4219 41.2682 11.2318 41.0234 11.1016C40.7786 10.9714 40.4974 10.9062 40.1797 10.9062C39.7578 10.9062 39.3984 11.0104 39.1016 11.2188C38.8047 11.4219 38.5755 11.7005 38.4141 12.0547C38.2578 12.4089 38.1797 12.8047 38.1797 13.2422C38.1797 13.7266 38.276 14.151 38.4688 14.5156C38.6615 14.8802 38.9297 15.1641 39.2734 15.3672C39.6224 15.5651 40.0234 15.6641 40.4766 15.6641C40.7318 15.6641 40.9896 15.6354 41.25 15.5781C41.5104 15.5208 41.75 15.4479 41.9688 15.3594C42.1875 15.2656 42.362 15.1667 42.4922 15.0625L43.2578 16.9062C42.9401 17.1146 42.5391 17.2865 42.0547 17.4219C41.5755 17.5573 41.0599 17.625 40.5078 17.625ZM51.7812 17.5L50.1328 14.875H50.0391L48.5703 13.3047V13.2656L45.8125 9.09375H48.3516L50.0703 11.8672H50.1406L51.6172 13.2891V13.3281L54.3828 17.5H51.7812ZM45.7812 17.5L48.5703 13.3281V13.2891L50.0625 11.8672H50.1328L51.8359 9.09375H54.3984L51.6172 13.2656V13.3047L50.1641 14.875H50.0703L48.4062 17.5H45.7812ZM60.1719 17.625C59.3646 17.625 58.6276 17.4401 57.9609 17.0703C57.2995 16.7005 56.7708 16.1901 56.375 15.5391C55.9844 14.888 55.7891 14.138 55.7891 13.2891C55.7891 12.4401 55.9844 11.6901 56.375 11.0391C56.7708 10.388 57.2995 9.88021 57.9609 9.51562C58.6276 9.15104 59.3646 8.96875 60.1719 8.96875C60.9948 8.96875 61.737 9.15104 62.3984 9.51562C63.0599 9.88021 63.5833 10.388 63.9688 11.0391C64.3594 11.6901 64.5547 12.4401 64.5547 13.2891C64.5547 14.138 64.3594 14.888 63.9688 15.5391C63.5833 16.1901 63.0573 16.7005 62.3906 17.0703C61.7292 17.4401 60.9896 17.625 60.1719 17.625ZM60.1719 15.5156C60.5573 15.5156 60.9036 15.4219 61.2109 15.2344C61.5182 15.0469 61.7604 14.7865 61.9375 14.4531C62.1146 14.1198 62.2031 13.7318 62.2031 13.2891C62.2031 12.862 62.1172 12.4818 61.9453 12.1484C61.7734 11.8151 61.5365 11.5547 61.2344 11.3672C60.9323 11.1745 60.5833 11.0781 60.1875 11.0781C59.7969 11.0781 59.4453 11.1719 59.1328 11.3594C58.8255 11.5417 58.5833 11.7995 58.4062 12.1328C58.2292 12.4661 58.1406 12.8516 58.1406 13.2891C58.1406 13.7318 58.2292 14.1198 58.4062 14.4531C58.5885 14.7865 58.8333 15.0469 59.1406 15.2344C59.4479 15.4219 59.7917 15.5156 60.1719 15.5156ZM67.2188 17.5V9.09375H69.6172V10.2734H69.8594L69.2969 10.8672C69.4219 10.6068 69.612 10.3307 69.8672 10.0391C70.1224 9.7474 70.4427 9.4974 70.8281 9.28906C71.2188 9.07552 71.6771 8.96875 72.2031 8.96875C72.4219 8.96875 72.6146 8.98698 72.7812 9.02344C72.9531 9.0599 73.0781 9.09896 73.1562 9.14062L72.1641 11.5C72.112 11.474 72.0182 11.4453 71.8828 11.4141C71.7526 11.3828 71.6068 11.3672 71.4453 11.3672C71.2474 11.3672 71.0443 11.4036 70.8359 11.4766C70.6328 11.5443 70.4427 11.6536 70.2656 11.8047C70.0938 11.9557 69.9531 12.1458 69.8438 12.375C69.7396 12.599 69.6875 12.8672 69.6875 13.1797V17.5H67.2188ZM77.25 17.625C76.6823 17.625 76.1823 17.5104 75.75 17.2812C75.3229 17.0521 74.987 16.7448 74.7422 16.3594C74.5026 15.974 74.3828 15.5417 74.3828 15.0625C74.3828 14.5573 74.5182 14.1094 74.7891 13.7188C75.0651 13.3281 75.4609 13.0208 75.9766 12.7969C76.4974 12.5729 77.1224 12.4609 77.8516 12.4609H79.8594V14.0078H78.1484C77.7005 14.0078 77.3568 14.0807 77.1172 14.2266C76.8828 14.3724 76.7656 14.599 76.7656 14.9062C76.7656 15.0885 76.8125 15.2448 76.9062 15.375C77 15.5 77.1302 15.599 77.2969 15.6719C77.4688 15.7396 77.6615 15.7734 77.875 15.7734C78.0729 15.7734 78.3047 15.7344 78.5703 15.6562C78.8359 15.5781 79.0651 15.4479 79.2578 15.2656C79.4557 15.0833 79.5547 14.8385 79.5547 14.5312V13.5547L79.4375 13.1875V12.0391C79.4375 11.8776 79.4062 11.7318 79.3438 11.6016C79.2865 11.4661 79.1979 11.3516 79.0781 11.2578C78.9583 11.1641 78.8125 11.0938 78.6406 11.0469C78.4688 10.9948 78.2734 10.9688 78.0547 10.9688C77.8047 10.9688 77.5365 10.9974 77.25 11.0547C76.9635 11.1068 76.6875 11.1823 76.4219 11.2812C76.1562 11.375 75.9271 11.4844 75.7344 11.6094L74.9141 9.75C75.1224 9.63021 75.3958 9.51042 75.7344 9.39062C76.0781 9.27083 76.4688 9.17188 76.9062 9.09375C77.349 9.01042 77.8229 8.96875 78.3281 8.96875C79.1146 8.96875 79.7396 9.07031 80.2031 9.27344C80.6667 9.47135 81.0104 9.72656 81.2344 10.0391C81.4583 10.3464 81.6042 10.6771 81.6719 11.0312C81.7448 11.3802 81.7812 11.7057 81.7812 12.0078V14.5391C81.7812 14.8255 81.8151 15.0443 81.8828 15.1953C81.9557 15.3411 82.0833 15.4427 82.2656 15.5L82.4531 15.5625L81.5859 17.625L81.2969 17.5312C80.8125 17.3698 80.4479 17.1641 80.2031 16.9141C79.9583 16.6641 79.8125 16.4141 79.7656 16.1641L80.3125 16.5391H79.3438L79.9922 16.3438C79.8255 16.6771 79.4896 16.974 78.9844 17.2344C78.4844 17.4948 77.9062 17.625 77.25 17.625Z" fill="#232E2E"/>
</svg>
